<svg xmlns="http://www.w3.org/2000/svg" xmlns:xlink="http://www.w3.org/1999/xlink" width="417" zoomAndPan="magnify" viewBox="0 0 312.75 80.249996" height="107" preserveAspectRatio="xMidYMid meet" version="1.0"><defs><g/><clipPath id="9d94700092"><path d="M 2 18 L 65 18 L 65 79.507812 L 2 79.507812 Z M 2 18 " clip-rule="nonzero"/></clipPath></defs><g fill="#ffffff" fill-opacity="1"><g transform="translate(72.364583, 47.793341)"><g><path d="M 25.265625 0 L 23.9375 -16.65625 L 23.765625 -16.65625 L 18.015625 -0.171875 L 14.203125 -0.171875 L 8.4375 -16.65625 L 8.265625 -16.65625 L 6.953125 0 L 0.546875 0 L 3.0625 -28.09375 L 9.875 -28.09375 L 16.109375 -11.875 L 22.328125 -28.09375 L 29.140625 -28.09375 L 31.65625 0 Z M 25.265625 0 "/></g></g></g><g fill="#ffffff" fill-opacity="1"><g transform="translate(103.88664, 47.793341)"><g><path d="M 18.109375 -28.09375 L 18.109375 -22.46875 L 8.4375 -22.46875 L 8.4375 -16.890625 L 17.703125 -16.890625 L 17.703125 -11.265625 L 8.4375 -11.265625 L 8.4375 -5.625 L 18.109375 -5.625 L 18.109375 0 L 2.046875 0 L 2.046875 -28.09375 Z M 18.109375 -28.09375 "/></g></g></g><g fill="#ffffff" fill-opacity="1"><g transform="translate(122.94958, 47.793341)"><g><path d="M 2.046875 -28.09375 L 10.1875 -28.09375 C 14.082031 -28.09375 17.414062 -26.757812 20.1875 -24.09375 C 22.957031 -21.425781 24.34375 -18.082031 24.34375 -14.0625 C 24.34375 -10.019531 22.960938 -6.664062 20.203125 -4 C 17.441406 -1.332031 14.101562 0 10.1875 0 L 2.046875 0 Z M 8.4375 -5.71875 L 9.4375 -5.71875 C 11.769531 -5.71875 13.675781 -6.503906 15.15625 -8.078125 C 16.644531 -9.660156 17.40625 -11.644531 17.4375 -14.03125 C 17.4375 -16.414062 16.691406 -18.398438 15.203125 -19.984375 C 13.710938 -21.578125 11.789062 -22.375 9.4375 -22.375 L 8.4375 -22.375 Z M 8.4375 -5.71875 "/></g></g></g><g fill="#ffffff" fill-opacity="1"><g transform="translate(147.391043, 47.793341)"><g><path d="M 8.4375 -28.09375 L 8.4375 0 L 2.046875 0 L 2.046875 -28.09375 Z M 8.4375 -28.09375 "/></g></g></g><g fill="#ffffff" fill-opacity="1"><g transform="translate(157.194748, 47.793341)"><g><path d="M 16.3125 -28.09375 L 27.640625 0 L 20.765625 0 L 18.6875 -5.625 L 8 -5.625 L 5.921875 0 L -0.953125 0 L 10.390625 -28.09375 Z M 16.515625 -11.234375 L 13.375 -19.40625 L 13.3125 -19.40625 L 10.1875 -11.234375 Z M 16.515625 -11.234375 "/></g></g></g><g fill="#3bf4fb" fill-opacity="1"><g transform="translate(183.207563, 47.793341)"><g><path d="M 18.28125 -28.09375 L 18.28125 -22.46875 L 8.4375 -22.46875 L 8.4375 -16.890625 L 17.53125 -16.890625 L 17.53125 -11.265625 L 8.4375 -11.265625 L 8.4375 0 L 2.046875 0 L 2.046875 -28.09375 Z M 18.28125 -28.09375 "/></g></g></g><g fill="#3bf4fb" fill-opacity="1"><g transform="translate(201.827965, 47.793341)"><g><path d="M 18.109375 -28.09375 L 18.109375 -22.46875 L 8.4375 -22.46875 L 8.4375 -16.890625 L 17.703125 -16.890625 L 17.703125 -11.265625 L 8.4375 -11.265625 L 8.4375 -5.625 L 18.109375 -5.625 L 18.109375 0 L 2.046875 0 L 2.046875 -28.09375 Z M 18.109375 -28.09375 "/></g></g></g><g fill="#3bf4fb" fill-opacity="1"><g transform="translate(220.890905, 47.793341)"><g><path d="M 0.265625 -22.46875 L 0.265625 -28.09375 L 20.015625 -28.09375 L 20.015625 -22.46875 L 13.34375 -22.46875 L 13.34375 0 L 6.953125 0 L 6.953125 -22.46875 Z M 0.265625 -22.46875 "/></g></g></g><g fill="#3bf4fb" fill-opacity="1"><g transform="translate(240.498506, 47.793341)"><g><path d="M 16.984375 -5.78125 C 17.960938 -5.78125 18.910156 -5.925781 19.828125 -6.21875 C 20.753906 -6.519531 21.429688 -6.804688 21.859375 -7.078125 L 22.5 -7.53125 L 25.234375 -2.078125 C 25.140625 -2.003906 25.007812 -1.910156 24.84375 -1.796875 C 24.6875 -1.691406 24.316406 -1.484375 23.734375 -1.171875 C 23.160156 -0.867188 22.546875 -0.601562 21.890625 -0.375 C 21.234375 -0.144531 20.367188 0.0546875 19.296875 0.234375 C 18.234375 0.421875 17.132812 0.515625 16 0.515625 C 13.394531 0.515625 10.921875 -0.125 8.578125 -1.40625 C 6.242188 -2.695312 4.359375 -4.460938 2.921875 -6.703125 C 1.492188 -8.953125 0.78125 -11.382812 0.78125 -14 C 0.78125 -15.96875 1.195312 -17.859375 2.03125 -19.671875 C 2.875 -21.492188 3.992188 -23.050781 5.390625 -24.34375 C 6.785156 -25.632812 8.414062 -26.664062 10.28125 -27.4375 C 12.144531 -28.207031 14.050781 -28.59375 16 -28.59375 C 17.8125 -28.59375 19.484375 -28.378906 21.015625 -27.953125 C 22.554688 -27.523438 23.644531 -27.09375 24.28125 -26.65625 L 25.234375 -26.015625 L 22.5 -20.5625 C 22.34375 -20.695312 22.101562 -20.859375 21.78125 -21.046875 C 21.46875 -21.242188 20.832031 -21.5 19.875 -21.8125 C 18.925781 -22.132812 17.960938 -22.296875 16.984375 -22.296875 C 15.441406 -22.296875 14.054688 -22.046875 12.828125 -21.546875 C 11.609375 -21.046875 10.640625 -20.382812 9.921875 -19.5625 C 9.210938 -18.75 8.671875 -17.875 8.296875 -16.9375 C 7.921875 -16 7.734375 -15.039062 7.734375 -14.0625 C 7.734375 -11.925781 8.53125 -10.007812 10.125 -8.3125 C 11.726562 -6.625 14.015625 -5.78125 16.984375 -5.78125 Z M 16.984375 -5.78125 "/></g></g></g><g fill="#3bf4fb" fill-opacity="1"><g transform="translate(265.450583, 47.793341)"><g><path d="M 8.4375 -11.265625 L 8.4375 0 L 2.046875 0 L 2.046875 -28.09375 L 8.4375 -28.09375 L 8.4375 -16.890625 L 17.5 -16.890625 L 17.5 -28.09375 L 23.90625 -28.09375 L 23.90625 0 L 17.5 0 L 17.5 -11.265625 Z M 8.4375 -11.265625 "/></g></g></g><g fill="#ffffff" fill-opacity="1"><g transform="translate(72.364583, 64.434191)"><g><path d="M 6.609375 -9.109375 L 6.609375 -8.140625 L 4.125 -8.140625 L 4.125 0 L 2.9375 0 L 2.9375 -8.140625 L 0.4375 -8.140625 L 0.4375 -9.109375 Z M 6.609375 -9.109375 "/></g></g></g><g fill="#ffffff" fill-opacity="1"><g transform="translate(79.359232, 64.434191)"><g><path d="M 2.1875 -9.109375 L 2.1875 0 L 1 0 L 1 -9.109375 Z M 2.1875 -9.109375 "/></g></g></g><g fill="#ffffff" fill-opacity="1"><g transform="translate(82.504179, 64.434191)"><g><path d="M 8.15625 0 L 6.96875 0 L 2.1875 -7.25 L 2.1875 0 L 1 0 L 1 -9.125 L 2.1875 -9.125 L 6.96875 -1.875 L 6.96875 -9.125 L 8.15625 -9.125 Z M 8.15625 0 "/></g></g></g><g fill="#ffffff" fill-opacity="1"><g transform="translate(91.612902, 64.434191)"><g><path d="M 7.375 -9.109375 L 4.421875 -3.4375 L 4.421875 0 L 3.21875 0 L 3.21875 -3.4375 L 0.25 -9.109375 L 1.5625 -9.109375 L 3.8125 -4.5 L 6.0625 -9.109375 Z M 7.375 -9.109375 "/></g></g></g><g fill="#ffffff" fill-opacity="1"><g transform="translate(99.168697, 64.434191)"><g><path d="M 2.234375 -1.640625 L 0.765625 1.875 L -0.03125 1.875 L 0.921875 -1.640625 Z M 2.234375 -1.640625 "/></g></g></g><g fill="#ffffff" fill-opacity="1"><g transform="translate(101.687258, 64.434191)"><g/></g></g><g fill="#ffffff" fill-opacity="1"><g transform="translate(105.106259, 64.434191)"><g><path d="M 3.890625 0.09375 C 3.285156 0.09375 2.742188 -0.0078125 2.265625 -0.21875 C 1.796875 -0.4375 1.425781 -0.734375 1.15625 -1.109375 C 0.882812 -1.492188 0.75 -1.929688 0.75 -2.421875 L 2.015625 -2.421875 C 2.054688 -2.003906 2.226562 -1.648438 2.53125 -1.359375 C 2.84375 -1.066406 3.296875 -0.921875 3.890625 -0.921875 C 4.453125 -0.921875 4.894531 -1.0625 5.21875 -1.34375 C 5.550781 -1.625 5.71875 -1.984375 5.71875 -2.421875 C 5.71875 -2.773438 5.617188 -3.0625 5.421875 -3.28125 C 5.234375 -3.5 4.992188 -3.660156 4.703125 -3.765625 C 4.421875 -3.878906 4.035156 -4.003906 3.546875 -4.140625 C 2.953125 -4.296875 2.472656 -4.453125 2.109375 -4.609375 C 1.742188 -4.765625 1.429688 -5.007812 1.171875 -5.34375 C 0.921875 -5.6875 0.796875 -6.140625 0.796875 -6.703125 C 0.796875 -7.203125 0.921875 -7.640625 1.171875 -8.015625 C 1.421875 -8.398438 1.773438 -8.695312 2.234375 -8.90625 C 2.691406 -9.113281 3.21875 -9.21875 3.8125 -9.21875 C 4.664062 -9.21875 5.363281 -9.003906 5.90625 -8.578125 C 6.457031 -8.148438 6.765625 -7.585938 6.828125 -6.890625 L 5.53125 -6.890625 C 5.476562 -7.234375 5.289062 -7.535156 4.96875 -7.796875 C 4.65625 -8.066406 4.234375 -8.203125 3.703125 -8.203125 C 3.203125 -8.203125 2.796875 -8.070312 2.484375 -7.8125 C 2.171875 -7.5625 2.015625 -7.203125 2.015625 -6.734375 C 2.015625 -6.410156 2.109375 -6.140625 2.296875 -5.921875 C 2.484375 -5.710938 2.710938 -5.554688 2.984375 -5.453125 C 3.253906 -5.347656 3.640625 -5.222656 4.140625 -5.078125 C 4.742188 -4.910156 5.226562 -4.742188 5.59375 -4.578125 C 5.957031 -4.421875 6.269531 -4.175781 6.53125 -3.84375 C 6.789062 -3.507812 6.921875 -3.054688 6.921875 -2.484375 C 6.921875 -2.035156 6.800781 -1.613281 6.5625 -1.21875 C 6.332031 -0.832031 5.984375 -0.515625 5.515625 -0.265625 C 5.054688 -0.0234375 4.515625 0.09375 3.890625 0.09375 Z M 3.890625 0.09375 "/></g></g></g><g fill="#ffffff" fill-opacity="1"><g transform="translate(112.701205, 64.434191)"><g><path d="M 2.1875 -8.140625 L 2.1875 -5.09375 L 5.515625 -5.09375 L 5.515625 -4.109375 L 2.1875 -4.109375 L 2.1875 -0.984375 L 5.90625 -0.984375 L 5.90625 0 L 1 0 L 1 -9.125 L 5.90625 -9.125 L 5.90625 -8.140625 Z M 2.1875 -8.140625 "/></g></g></g><g fill="#ffffff" fill-opacity="1"><g transform="translate(119.330461, 64.434191)"><g><path d="M 2.1875 -0.96875 L 5.375 -0.96875 L 5.375 0 L 1 0 L 1 -9.109375 L 2.1875 -9.109375 Z M 2.1875 -0.96875 "/></g></g></g><g fill="#ffffff" fill-opacity="1"><g transform="translate(124.902685, 64.434191)"><g><path d="M 6.15625 -9.109375 L 6.15625 -8.140625 L 2.1875 -8.140625 L 2.1875 -5.0625 L 5.40625 -5.0625 L 5.40625 -4.109375 L 2.1875 -4.109375 L 2.1875 0 L 1 0 L 1 -9.109375 Z M 6.15625 -9.109375 "/></g></g></g><g fill="#ffffff" fill-opacity="1"><g transform="translate(131.414489, 64.434191)"><g><path d="M 5.96875 -5.296875 L 5.96875 -4.28125 L 0.765625 -4.28125 L 0.765625 -5.296875 Z M 5.96875 -5.296875 "/></g></g></g><g fill="#ffffff" fill-opacity="1"><g transform="translate(138.53964, 64.434191)"><g><path d="M 8.015625 -9.109375 L 8.015625 0 L 6.828125 0 L 6.828125 -4.125 L 2.1875 -4.125 L 2.1875 0 L 1 0 L 1 -9.109375 L 2.1875 -9.109375 L 2.1875 -5.109375 L 6.828125 -5.109375 L 6.828125 -9.109375 Z M 8.015625 -9.109375 "/></g></g></g><g fill="#ffffff" fill-opacity="1"><g transform="translate(147.504811, 64.434191)"><g><path d="M 5.140625 0.09375 C 4.285156 0.09375 3.507812 -0.101562 2.8125 -0.5 C 2.125 -0.894531 1.578125 -1.445312 1.171875 -2.15625 C 0.765625 -2.863281 0.5625 -3.664062 0.5625 -4.5625 C 0.5625 -5.445312 0.765625 -6.242188 1.171875 -6.953125 C 1.578125 -7.660156 2.125 -8.210938 2.8125 -8.609375 C 3.507812 -9.003906 4.285156 -9.203125 5.140625 -9.203125 C 5.984375 -9.203125 6.753906 -9.003906 7.453125 -8.609375 C 8.148438 -8.210938 8.695312 -7.660156 9.09375 -6.953125 C 9.5 -6.253906 9.703125 -5.457031 9.703125 -4.5625 C 9.703125 -3.664062 9.5 -2.863281 9.09375 -2.15625 C 8.695312 -1.445312 8.148438 -0.894531 7.453125 -0.5 C 6.753906 -0.101562 5.984375 0.09375 5.140625 0.09375 Z M 5.140625 -0.9375 C 5.773438 -0.9375 6.34375 -1.082031 6.84375 -1.375 C 7.351562 -1.675781 7.753906 -2.097656 8.046875 -2.640625 C 8.335938 -3.191406 8.484375 -3.832031 8.484375 -4.5625 C 8.484375 -5.289062 8.335938 -5.925781 8.046875 -6.46875 C 7.753906 -7.007812 7.351562 -7.425781 6.84375 -7.71875 C 6.34375 -8.019531 5.773438 -8.171875 5.140625 -8.171875 C 4.492188 -8.171875 3.914062 -8.019531 3.40625 -7.71875 C 2.90625 -7.425781 2.507812 -7.007812 2.21875 -6.46875 C 1.925781 -5.925781 1.78125 -5.289062 1.78125 -4.5625 C 1.78125 -3.832031 1.925781 -3.191406 2.21875 -2.640625 C 2.507812 -2.097656 2.910156 -1.675781 3.421875 -1.375 C 3.929688 -1.082031 4.503906 -0.9375 5.140625 -0.9375 Z M 5.140625 -0.9375 "/></g></g></g><g fill="#ffffff" fill-opacity="1"><g transform="translate(157.696664, 64.434191)"><g><path d="M 3.890625 0.09375 C 3.285156 0.09375 2.742188 -0.0078125 2.265625 -0.21875 C 1.796875 -0.4375 1.425781 -0.734375 1.15625 -1.109375 C 0.882812 -1.492188 0.75 -1.929688 0.75 -2.421875 L 2.015625 -2.421875 C 2.054688 -2.003906 2.226562 -1.648438 2.53125 -1.359375 C 2.84375 -1.066406 3.296875 -0.921875 3.890625 -0.921875 C 4.453125 -0.921875 4.894531 -1.0625 5.21875 -1.34375 C 5.550781 -1.625 5.71875 -1.984375 5.71875 -2.421875 C 5.71875 -2.773438 5.617188 -3.0625 5.421875 -3.28125 C 5.234375 -3.5 4.992188 -3.660156 4.703125 -3.765625 C 4.421875 -3.878906 4.035156 -4.003906 3.546875 -4.140625 C 2.953125 -4.296875 2.472656 -4.453125 2.109375 -4.609375 C 1.742188 -4.765625 1.429688 -5.007812 1.171875 -5.34375 C 0.921875 -5.6875 0.796875 -6.140625 0.796875 -6.703125 C 0.796875 -7.203125 0.921875 -7.640625 1.171875 -8.015625 C 1.421875 -8.398438 1.773438 -8.695312 2.234375 -8.90625 C 2.691406 -9.113281 3.21875 -9.21875 3.8125 -9.21875 C 4.664062 -9.21875 5.363281 -9.003906 5.90625 -8.578125 C 6.457031 -8.148438 6.765625 -7.585938 6.828125 -6.890625 L 5.53125 -6.890625 C 5.476562 -7.234375 5.289062 -7.535156 4.96875 -7.796875 C 4.65625 -8.066406 4.234375 -8.203125 3.703125 -8.203125 C 3.203125 -8.203125 2.796875 -8.070312 2.484375 -7.8125 C 2.171875 -7.5625 2.015625 -7.203125 2.015625 -6.734375 C 2.015625 -6.410156 2.109375 -6.140625 2.296875 -5.921875 C 2.484375 -5.710938 2.710938 -5.554688 2.984375 -5.453125 C 3.253906 -5.347656 3.640625 -5.222656 4.140625 -5.078125 C 4.742188 -4.910156 5.226562 -4.742188 5.59375 -4.578125 C 5.957031 -4.421875 6.269531 -4.175781 6.53125 -3.84375 C 6.789062 -3.507812 6.921875 -3.054688 6.921875 -2.484375 C 6.921875 -2.035156 6.800781 -1.613281 6.5625 -1.21875 C 6.332031 -0.832031 5.984375 -0.515625 5.515625 -0.265625 C 5.054688 -0.0234375 4.515625 0.09375 3.890625 0.09375 Z M 3.890625 0.09375 "/></g></g></g><g fill="#ffffff" fill-opacity="1"><g transform="translate(165.291611, 64.434191)"><g><path d="M 6.609375 -9.109375 L 6.609375 -8.140625 L 4.125 -8.140625 L 4.125 0 L 2.9375 0 L 2.9375 -8.140625 L 0.4375 -8.140625 L 0.4375 -9.109375 Z M 6.609375 -9.109375 "/></g></g></g><g fill="#ffffff" fill-opacity="1"><g transform="translate(172.28626, 64.434191)"><g><path d="M 2.1875 -8.140625 L 2.1875 -5.09375 L 5.515625 -5.09375 L 5.515625 -4.109375 L 2.1875 -4.109375 L 2.1875 -0.984375 L 5.90625 -0.984375 L 5.90625 0 L 1 0 L 1 -9.125 L 5.90625 -9.125 L 5.90625 -8.140625 Z M 2.1875 -8.140625 "/></g></g></g><g fill="#ffffff" fill-opacity="1"><g transform="translate(178.915515, 64.434191)"><g><path d="M 3.84375 -9.109375 C 4.832031 -9.109375 5.691406 -8.921875 6.421875 -8.546875 C 7.148438 -8.179688 7.707031 -7.65625 8.09375 -6.96875 C 8.476562 -6.28125 8.671875 -5.46875 8.671875 -4.53125 C 8.671875 -3.601562 8.476562 -2.796875 8.09375 -2.109375 C 7.707031 -1.421875 7.148438 -0.894531 6.421875 -0.53125 C 5.691406 -0.175781 4.832031 0 3.84375 0 L 1 0 L 1 -9.109375 Z M 3.84375 -0.984375 C 5.019531 -0.984375 5.914062 -1.289062 6.53125 -1.90625 C 7.144531 -2.53125 7.453125 -3.40625 7.453125 -4.53125 C 7.453125 -5.664062 7.140625 -6.550781 6.515625 -7.1875 C 5.898438 -7.820312 5.007812 -8.140625 3.84375 -8.140625 L 2.1875 -8.140625 L 2.1875 -0.984375 Z M 3.84375 -0.984375 "/></g></g></g><g fill="#ffffff" fill-opacity="1"><g transform="translate(188.076438, 64.434191)"><g><path d="M 1.390625 0.078125 C 1.160156 0.078125 0.96875 0 0.8125 -0.15625 C 0.65625 -0.3125 0.578125 -0.503906 0.578125 -0.734375 C 0.578125 -0.960938 0.65625 -1.15625 0.8125 -1.3125 C 0.96875 -1.46875 1.160156 -1.546875 1.390625 -1.546875 C 1.609375 -1.546875 1.789062 -1.46875 1.9375 -1.3125 C 2.09375 -1.15625 2.171875 -0.960938 2.171875 -0.734375 C 2.171875 -0.503906 2.09375 -0.3125 1.9375 -0.15625 C 1.789062 0 1.609375 0.078125 1.390625 0.078125 Z M 1.390625 0.078125 "/></g></g></g><g fill="#ffffff" fill-opacity="1"><g transform="translate(190.75159, 64.434191)"><g/></g></g><g fill="#ffffff" fill-opacity="1"><g transform="translate(194.170591, 64.434191)"><g><path d="M 8.15625 0 L 6.96875 0 L 2.1875 -7.25 L 2.1875 0 L 1 0 L 1 -9.125 L 2.1875 -9.125 L 6.96875 -1.875 L 6.96875 -9.125 L 8.15625 -9.125 Z M 8.15625 0 "/></g></g></g><g fill="#ffffff" fill-opacity="1"><g transform="translate(203.279313, 64.434191)"><g><path d="M 5.140625 0.09375 C 4.285156 0.09375 3.507812 -0.101562 2.8125 -0.5 C 2.125 -0.894531 1.578125 -1.445312 1.171875 -2.15625 C 0.765625 -2.863281 0.5625 -3.664062 0.5625 -4.5625 C 0.5625 -5.445312 0.765625 -6.242188 1.171875 -6.953125 C 1.578125 -7.660156 2.125 -8.210938 2.8125 -8.609375 C 3.507812 -9.003906 4.285156 -9.203125 5.140625 -9.203125 C 5.984375 -9.203125 6.753906 -9.003906 7.453125 -8.609375 C 8.148438 -8.210938 8.695312 -7.660156 9.09375 -6.953125 C 9.5 -6.253906 9.703125 -5.457031 9.703125 -4.5625 C 9.703125 -3.664062 9.5 -2.863281 9.09375 -2.15625 C 8.695312 -1.445312 8.148438 -0.894531 7.453125 -0.5 C 6.753906 -0.101562 5.984375 0.09375 5.140625 0.09375 Z M 5.140625 -0.9375 C 5.773438 -0.9375 6.34375 -1.082031 6.84375 -1.375 C 7.351562 -1.675781 7.753906 -2.097656 8.046875 -2.640625 C 8.335938 -3.191406 8.484375 -3.832031 8.484375 -4.5625 C 8.484375 -5.289062 8.335938 -5.925781 8.046875 -6.46875 C 7.753906 -7.007812 7.351562 -7.425781 6.84375 -7.71875 C 6.34375 -8.019531 5.773438 -8.171875 5.140625 -8.171875 C 4.492188 -8.171875 3.914062 -8.019531 3.40625 -7.71875 C 2.90625 -7.425781 2.507812 -7.007812 2.21875 -6.46875 C 1.925781 -5.925781 1.78125 -5.289062 1.78125 -4.5625 C 1.78125 -3.832031 1.925781 -3.191406 2.21875 -2.640625 C 2.507812 -2.097656 2.910156 -1.675781 3.421875 -1.375 C 3.929688 -1.082031 4.503906 -0.9375 5.140625 -0.9375 Z M 5.140625 -0.9375 "/></g></g></g><g fill="#ffffff" fill-opacity="1"><g transform="translate(213.471167, 64.434191)"><g/></g></g><g fill="#ffffff" fill-opacity="1"><g transform="translate(216.890168, 64.434191)"><g><path d="M 8.15625 0 L 6.96875 0 L 2.1875 -7.25 L 2.1875 0 L 1 0 L 1 -9.125 L 2.1875 -9.125 L 6.96875 -1.875 L 6.96875 -9.125 L 8.15625 -9.125 Z M 8.15625 0 "/></g></g></g><g fill="#ffffff" fill-opacity="1"><g transform="translate(225.99889, 64.434191)"><g><path d="M 5.140625 0.09375 C 4.285156 0.09375 3.507812 -0.101562 2.8125 -0.5 C 2.125 -0.894531 1.578125 -1.445312 1.171875 -2.15625 C 0.765625 -2.863281 0.5625 -3.664062 0.5625 -4.5625 C 0.5625 -5.445312 0.765625 -6.242188 1.171875 -6.953125 C 1.578125 -7.660156 2.125 -8.210938 2.8125 -8.609375 C 3.507812 -9.003906 4.285156 -9.203125 5.140625 -9.203125 C 5.984375 -9.203125 6.753906 -9.003906 7.453125 -8.609375 C 8.148438 -8.210938 8.695312 -7.660156 9.09375 -6.953125 C 9.5 -6.253906 9.703125 -5.457031 9.703125 -4.5625 C 9.703125 -3.664062 9.5 -2.863281 9.09375 -2.15625 C 8.695312 -1.445312 8.148438 -0.894531 7.453125 -0.5 C 6.753906 -0.101562 5.984375 0.09375 5.140625 0.09375 Z M 5.140625 -0.9375 C 5.773438 -0.9375 6.34375 -1.082031 6.84375 -1.375 C 7.351562 -1.675781 7.753906 -2.097656 8.046875 -2.640625 C 8.335938 -3.191406 8.484375 -3.832031 8.484375 -4.5625 C 8.484375 -5.289062 8.335938 -5.925781 8.046875 -6.46875 C 7.753906 -7.007812 7.351562 -7.425781 6.84375 -7.71875 C 6.34375 -8.019531 5.773438 -8.171875 5.140625 -8.171875 C 4.492188 -8.171875 3.914062 -8.019531 3.40625 -7.71875 C 2.90625 -7.425781 2.507812 -7.007812 2.21875 -6.46875 C 1.925781 -5.925781 1.78125 -5.289062 1.78125 -4.5625 C 1.78125 -3.832031 1.925781 -3.191406 2.21875 -2.640625 C 2.507812 -2.097656 2.910156 -1.675781 3.421875 -1.375 C 3.929688 -1.082031 4.503906 -0.9375 5.140625 -0.9375 Z M 5.140625 -0.9375 "/></g></g></g><g fill="#ffffff" fill-opacity="1"><g transform="translate(236.190744, 64.434191)"><g><path d="M 8.15625 0 L 6.96875 0 L 2.1875 -7.25 L 2.1875 0 L 1 0 L 1 -9.125 L 2.1875 -9.125 L 6.96875 -1.875 L 6.96875 -9.125 L 8.15625 -9.125 Z M 8.15625 0 "/></g></g></g><g fill="#ffffff" fill-opacity="1"><g transform="translate(245.299466, 64.434191)"><g><path d="M 3.890625 0.09375 C 3.285156 0.09375 2.742188 -0.0078125 2.265625 -0.21875 C 1.796875 -0.4375 1.425781 -0.734375 1.15625 -1.109375 C 0.882812 -1.492188 0.75 -1.929688 0.75 -2.421875 L 2.015625 -2.421875 C 2.054688 -2.003906 2.226562 -1.648438 2.53125 -1.359375 C 2.84375 -1.066406 3.296875 -0.921875 3.890625 -0.921875 C 4.453125 -0.921875 4.894531 -1.0625 5.21875 -1.34375 C 5.550781 -1.625 5.71875 -1.984375 5.71875 -2.421875 C 5.71875 -2.773438 5.617188 -3.0625 5.421875 -3.28125 C 5.234375 -3.5 4.992188 -3.660156 4.703125 -3.765625 C 4.421875 -3.878906 4.035156 -4.003906 3.546875 -4.140625 C 2.953125 -4.296875 2.472656 -4.453125 2.109375 -4.609375 C 1.742188 -4.765625 1.429688 -5.007812 1.171875 -5.34375 C 0.921875 -5.6875 0.796875 -6.140625 0.796875 -6.703125 C 0.796875 -7.203125 0.921875 -7.640625 1.171875 -8.015625 C 1.421875 -8.398438 1.773438 -8.695312 2.234375 -8.90625 C 2.691406 -9.113281 3.21875 -9.21875 3.8125 -9.21875 C 4.664062 -9.21875 5.363281 -9.003906 5.90625 -8.578125 C 6.457031 -8.148438 6.765625 -7.585938 6.828125 -6.890625 L 5.53125 -6.890625 C 5.476562 -7.234375 5.289062 -7.535156 4.96875 -7.796875 C 4.65625 -8.066406 4.234375 -8.203125 3.703125 -8.203125 C 3.203125 -8.203125 2.796875 -8.070312 2.484375 -7.8125 C 2.171875 -7.5625 2.015625 -7.203125 2.015625 -6.734375 C 2.015625 -6.410156 2.109375 -6.140625 2.296875 -5.921875 C 2.484375 -5.710938 2.710938 -5.554688 2.984375 -5.453125 C 3.253906 -5.347656 3.640625 -5.222656 4.140625 -5.078125 C 4.742188 -4.910156 5.226562 -4.742188 5.59375 -4.578125 C 5.957031 -4.421875 6.269531 -4.175781 6.53125 -3.84375 C 6.789062 -3.507812 6.921875 -3.054688 6.921875 -2.484375 C 6.921875 -2.035156 6.800781 -1.613281 6.5625 -1.21875 C 6.332031 -0.832031 5.984375 -0.515625 5.515625 -0.265625 C 5.054688 -0.0234375 4.515625 0.09375 3.890625 0.09375 Z M 3.890625 0.09375 "/></g></g></g><g fill="#ffffff" fill-opacity="1"><g transform="translate(252.894413, 64.434191)"><g><path d="M 2.1875 -8.140625 L 2.1875 -5.09375 L 5.515625 -5.09375 L 5.515625 -4.109375 L 2.1875 -4.109375 L 2.1875 -0.984375 L 5.90625 -0.984375 L 5.90625 0 L 1 0 L 1 -9.125 L 5.90625 -9.125 L 5.90625 -8.140625 Z M 2.1875 -8.140625 "/></g></g></g><g fill="#ffffff" fill-opacity="1"><g transform="translate(259.523668, 64.434191)"><g><path d="M 8.15625 0 L 6.96875 0 L 2.1875 -7.25 L 2.1875 0 L 1 0 L 1 -9.125 L 2.1875 -9.125 L 6.96875 -1.875 L 6.96875 -9.125 L 8.15625 -9.125 Z M 8.15625 0 "/></g></g></g><g fill="#ffffff" fill-opacity="1"><g transform="translate(268.63239, 64.434191)"><g><path d="M 3.890625 0.09375 C 3.285156 0.09375 2.742188 -0.0078125 2.265625 -0.21875 C 1.796875 -0.4375 1.425781 -0.734375 1.15625 -1.109375 C 0.882812 -1.492188 0.75 -1.929688 0.75 -2.421875 L 2.015625 -2.421875 C 2.054688 -2.003906 2.226562 -1.648438 2.53125 -1.359375 C 2.84375 -1.066406 3.296875 -0.921875 3.890625 -0.921875 C 4.453125 -0.921875 4.894531 -1.0625 5.21875 -1.34375 C 5.550781 -1.625 5.71875 -1.984375 5.71875 -2.421875 C 5.71875 -2.773438 5.617188 -3.0625 5.421875 -3.28125 C 5.234375 -3.5 4.992188 -3.660156 4.703125 -3.765625 C 4.421875 -3.878906 4.035156 -4.003906 3.546875 -4.140625 C 2.953125 -4.296875 2.472656 -4.453125 2.109375 -4.609375 C 1.742188 -4.765625 1.429688 -5.007812 1.171875 -5.34375 C 0.921875 -5.6875 0.796875 -6.140625 0.796875 -6.703125 C 0.796875 -7.203125 0.921875 -7.640625 1.171875 -8.015625 C 1.421875 -8.398438 1.773438 -8.695312 2.234375 -8.90625 C 2.691406 -9.113281 3.21875 -9.21875 3.8125 -9.21875 C 4.664062 -9.21875 5.363281 -9.003906 5.90625 -8.578125 C 6.457031 -8.148438 6.765625 -7.585938 6.828125 -6.890625 L 5.53125 -6.890625 C 5.476562 -7.234375 5.289062 -7.535156 4.96875 -7.796875 C 4.65625 -8.066406 4.234375 -8.203125 3.703125 -8.203125 C 3.203125 -8.203125 2.796875 -8.070312 2.484375 -7.8125 C 2.171875 -7.5625 2.015625 -7.203125 2.015625 -6.734375 C 2.015625 -6.410156 2.109375 -6.140625 2.296875 -5.921875 C 2.484375 -5.710938 2.710938 -5.554688 2.984375 -5.453125 C 3.253906 -5.347656 3.640625 -5.222656 4.140625 -5.078125 C 4.742188 -4.910156 5.226562 -4.742188 5.59375 -4.578125 C 5.957031 -4.421875 6.269531 -4.175781 6.53125 -3.84375 C 6.789062 -3.507812 6.921875 -3.054688 6.921875 -2.484375 C 6.921875 -2.035156 6.800781 -1.613281 6.5625 -1.21875 C 6.332031 -0.832031 5.984375 -0.515625 5.515625 -0.265625 C 5.054688 -0.0234375 4.515625 0.09375 3.890625 0.09375 Z M 3.890625 0.09375 "/></g></g></g><g fill="#ffffff" fill-opacity="1"><g transform="translate(276.227325, 64.434191)"><g><path d="M 2.1875 -8.140625 L 2.1875 -5.09375 L 5.515625 -5.09375 L 5.515625 -4.109375 L 2.1875 -4.109375 L 2.1875 -0.984375 L 5.90625 -0.984375 L 5.90625 0 L 1 0 L 1 -9.125 L 5.90625 -9.125 L 5.90625 -8.140625 Z M 2.1875 -8.140625 "/></g></g></g><g fill="#ffffff" fill-opacity="1"><g transform="translate(282.856592, 64.434191)"><g><path d="M 1.390625 0.078125 C 1.160156 0.078125 0.96875 0 0.8125 -0.15625 C 0.65625 -0.3125 0.578125 -0.503906 0.578125 -0.734375 C 0.578125 -0.960938 0.65625 -1.15625 0.8125 -1.3125 C 0.96875 -1.46875 1.160156 -1.546875 1.390625 -1.546875 C 1.609375 -1.546875 1.789062 -1.46875 1.9375 -1.3125 C 2.09375 -1.15625 2.171875 -0.960938 2.171875 -0.734375 C 2.171875 -0.503906 2.09375 -0.3125 1.9375 -0.15625 C 1.789062 0 1.609375 0.078125 1.390625 0.078125 Z M 1.390625 0.078125 "/></g></g></g><g clip-path="url(#9d94700092)"><path fill="#4f46e5" d="M 36.625 79.230469 C 35.546875 79.230469 34.460938 79.09375 33.367188 78.820312 C 30.058594 77.992188 26.835938 76.15625 23.652344 73.792969 C 26.238281 74.078125 28.910156 74.171875 31.574219 74.171875 C 32.847656 74.171875 34.121094 74.152344 35.382812 74.117188 C 40.632812 73.863281 45.675781 73.414062 49.957031 72.066406 C 49.914062 72.113281 49.871094 72.15625 49.828125 72.203125 C 45.464844 76.867188 41.113281 79.230469 36.625 79.230469 M 4.613281 53.144531 C 4.332031 52.574219 4.070312 51.996094 3.832031 51.410156 C 1.332031 45.253906 2.648438 39.222656 8.058594 33.441406 C 9.136719 32.285156 10.382812 31.132812 11.78125 30.019531 C 7.367188 37.855469 4.949219 46.28125 4.613281 53.144531 M 61.445312 52.105469 C 60.867188 44.582031 58.117188 35.101562 53.074219 26.761719 C 51.097656 23.496094 48.894531 20.722656 46.542969 18.539062 C 51.53125 18.964844 55.738281 20.566406 58.675781 23.355469 C 64.085938 28.265625 65.402344 37.003906 62.902344 47.15625 C 62.488281 48.835938 62 50.488281 61.445312 52.105469 " fill-opacity="1" fill-rule="nonzero"/></g><path fill="#3bf4fb" d="M 23.652344 73.792969 C 20.332031 73.421875 17.15625 72.738281 14.3125 71.539062 C 8.191406 68.953125 4.855469 63.753906 4.59375 55.84375 C 4.5625 54.976562 4.570312 54.074219 4.613281 53.144531 C 7.332031 58.617188 12.125 63.597656 16.90625 68.132812 C 19.148438 70.171875 21.390625 72.113281 23.652344 73.792969 M 49.957031 72.066406 C 54.320312 67.324219 58.679688 60.183594 61.445312 52.105469 C 61.488281 52.652344 61.519531 53.191406 61.539062 53.71875 C 61.800781 61.628906 59.574219 67.03125 54.578125 70.035156 C 53.175781 70.875 51.625 71.539062 49.957031 72.066406 M 11.78125 30.019531 C 12.109375 29.429688 12.453125 28.847656 12.808594 28.265625 C 18.511719 18.902344 25.976562 13.109375 33.253906 12.921875 C 33.484375 12.910156 33.71875 12.902344 33.949219 12.902344 C 38.34375 12.902344 42.652344 14.921875 46.542969 18.539062 C 45.632812 18.457031 44.699219 18.421875 43.742188 18.421875 C 40.507812 18.421875 37.011719 18.863281 33.367188 19.75 C 24.886719 21.808594 17.21875 25.667969 11.78125 30.019531 " fill-opacity="1" fill-rule="nonzero"/><path fill="#4338ca" d="M 31.574219 74.171875 C 28.910156 74.171875 26.238281 74.078125 23.652344 73.792969 C 21.390625 72.113281 19.148438 70.171875 16.90625 68.132812 C 12.125 63.597656 7.332031 58.617188 4.613281 53.144531 C 4.949219 46.28125 7.367188 37.855469 11.78125 30.019531 C 17.21875 25.667969 24.886719 21.808594 33.367188 19.75 C 37.011719 18.863281 40.507812 18.421875 43.742188 18.421875 C 44.699219 18.421875 45.632812 18.457031 46.542969 18.539062 C 48.894531 20.722656 51.097656 23.496094 53.074219 26.761719 C 58.117188 35.101562 60.867188 44.582031 61.445312 52.105469 C 58.679688 60.183594 54.320312 67.324219 49.957031 72.066406 C 45.675781 73.414062 40.632812 73.863281 35.382812 74.117188 C 34.121094 74.152344 32.847656 74.171875 31.574219 74.171875 " fill-opacity="1" fill-rule="nonzero"/><path fill="#4f46e5" d="M 47.613281 11.703125 C 44.382812 11.703125 41.761719 9.082031 41.761719 5.851562 C 41.761719 2.617188 44.382812 0 47.613281 0 C 50.84375 0 53.464844 2.617188 53.464844 5.851562 C 53.464844 9.082031 50.84375 11.703125 47.613281 11.703125 " fill-opacity="1" fill-rule="nonzero"/><path fill="#3bf4fb" d="M 59.316406 20.582031 C 57.699219 20.582031 56.390625 19.269531 56.390625 17.652344 C 56.390625 16.039062 57.699219 14.730469 59.316406 14.730469 C 60.933594 14.730469 62.242188 16.039062 62.242188 17.652344 C 62.242188 19.269531 60.933594 20.582031 59.316406 20.582031 " fill-opacity="1" fill-rule="nonzero"/><path fill="#ffffff" d="M 51.261719 42.058594 L 26.488281 27.757812 C 23.546875 26.058594 19.875 28.179688 19.875 31.574219 L 19.875 60.179688 C 19.875 63.574219 23.546875 65.695312 26.488281 64 L 51.261719 49.695312 C 54.199219 48 54.199219 43.757812 51.261719 42.058594 " fill-opacity="1" fill-rule="nonzero"/></svg>